<svg width="31" height="31" viewBox="0 0 31 31" fill="none" xmlns="http://www.w3.org/2000/svg">
<path d="M0 0.0173438L19.6846 0.0179373C23.1734 0.0179928 26.8739 0.0764013 30.3437 0C30.398 3.74677 30.3546 7.59126 30.3546 11.3439L30.3515 30.2857L0 30.2843V0.0173438Z" fill="url(#paint0_radial_334_1213)"/>
<g clip-path="url(#paint1_diamond_334_1213_clip_path)" data-figma-skip-parse="true"><g transform="matrix(0 0.0135975 -0.0135975 0 15.8172 15.1258)"><rect x="0" y="0" width="1040.82" height="1040.82" fill="url(#paint1_diamond_334_1213)" opacity="1" shape-rendering="crispEdges"/><rect x="0" y="0" width="1040.82" height="1040.82" transform="scale(1 -1)" fill="url(#paint1_diamond_334_1213)" opacity="1" shape-rendering="crispEdges"/><rect x="0" y="0" width="1040.82" height="1040.82" transform="scale(-1 1)" fill="url(#paint1_diamond_334_1213)" opacity="1" shape-rendering="crispEdges"/><rect x="0" y="0" width="1040.82" height="1040.82" transform="scale(-1)" fill="url(#paint1_diamond_334_1213)" opacity="1" shape-rendering="crispEdges"/></g></g><circle cx="15.8172" cy="15.1258" r="13.5975" data-figma-gradient-fill="{&#34;type&#34;:&#34;GRADIENT_DIAMOND&#34;,&#34;stops&#34;:[{&#34;color&#34;:{&#34;r&#34;:1.0,&#34;g&#34;:1.0,&#34;b&#34;:1.0,&#34;a&#34;:1.0},&#34;position&#34;:0.0},{&#34;color&#34;:{&#34;r&#34;:1.0,&#34;g&#34;:1.0,&#34;b&#34;:1.0,&#34;a&#34;:0.0},&#34;position&#34;:1.0}],&#34;stopsVar&#34;:[{&#34;color&#34;:{&#34;r&#34;:1.0,&#34;g&#34;:1.0,&#34;b&#34;:1.0,&#34;a&#34;:1.0},&#34;position&#34;:0.0},{&#34;color&#34;:{&#34;r&#34;:1.0,&#34;g&#34;:1.0,&#34;b&#34;:1.0,&#34;a&#34;:0.0},&#34;position&#34;:1.0}],&#34;transform&#34;:{&#34;m00&#34;:1.6652135171053959e-15,&#34;m01&#34;:-27.194999694824219,&#34;m02&#34;:29.414726257324219,&#34;m10&#34;:27.194999694824219,&#34;m11&#34;:1.6652135171053959e-15,&#34;m12&#34;:1.52832031250},&#34;opacity&#34;:1.0,&#34;blendMode&#34;:&#34;NORMAL&#34;,&#34;visible&#34;:true}"/>
<path d="M10.2279 7L21.7714 7.00161L21.7672 9.69547L14.1358 9.69624C14.9056 10.8991 15.9621 12.3266 16.7916 13.5142L22.2469 21.3319L22.2448 23.7162L21.6103 23.7208L10.0103 23.7226C10.008 22.8805 9.98133 21.8552 10.0242 21.0298L18.3252 21.0307C16.4625 18.2276 14.372 15.4424 12.4871 12.6437C11.7644 11.5708 10.9138 10.4576 10.2312 9.37107C10.204 8.63531 10.2266 7.74681 10.2279 7Z" fill="black"/>
<defs>
<clipPath id="paint1_diamond_334_1213_clip_path"><circle cx="15.8172" cy="15.1258" r="13.5975"/></clipPath><radialGradient id="paint0_radial_334_1213" cx="0" cy="0" r="1" gradientUnits="userSpaceOnUse" gradientTransform="translate(15.1855 15.1429) rotate(90) scale(15.1428)">
<stop stop-color="#EDFE00"/>
<stop offset="1" stop-color="#D4FE00"/>
</radialGradient>
<linearGradient id="paint1_diamond_334_1213" x1="0" y1="0" x2="500" y2="500" gradientUnits="userSpaceOnUse">
<stop stop-color="white"/>
<stop offset="1" stop-color="white" stop-opacity="0"/>
</linearGradient>
</defs>
</svg>
