<svg width="200" height="63" viewBox="0 0 200 63" fill="none" xmlns="http://www.w3.org/2000/svg">
<g clip-path="url(#clip0_12_3)">
<path d="M152.341 5.99388C161.026 5.71031 168.305 12.4861 168.616 21.1451C168.928 29.8041 162.155 37.0827 153.472 37.4206C144.75 37.7601 137.411 30.9705 137.098 22.273C136.785 13.5754 143.617 6.2787 152.341 5.99388ZM153.269 32.1554C159.04 31.9293 163.538 27.0867 163.322 21.3317C163.107 15.5767 158.258 11.0824 152.486 11.2864C146.698 11.4909 142.176 16.341 142.392 22.1116C142.608 27.8823 147.481 32.3822 153.269 32.1554Z" fill="black"/>
<path d="M191.427 6.64876C193.261 6.63985 195.096 6.64781 196.93 6.67264L196.932 6.81667C197.028 13.751 196.916 28.9767 196.906 36.6555C196.854 36.7082 196.809 36.7543 196.771 36.7938C195.373 36.8068 193.976 36.8044 192.578 36.7865C189.316 32.1269 185.768 27.5285 182.473 22.8838C181.131 20.9925 179.555 18.9968 178.289 17.0775C178.159 23.5363 178.268 30.3006 178.259 36.7907C176.423 36.8027 174.587 36.8018 172.752 36.7879C172.574 29.7455 172.859 22.5442 172.737 15.487C172.687 12.6356 172.659 9.51139 172.768 6.66695C174.09 6.6231 175.709 6.63744 177.023 6.67784C178.526 8.54145 180.084 10.774 181.54 12.7054C184.851 17.0988 188.084 21.5706 191.422 25.9451L191.427 6.64876Z" fill="black"/>
<path d="M103.508 6.65154L124.255 6.65744C124.303 8.26011 124.277 9.91175 124.272 11.5191C119.813 11.5855 114.979 11.5695 110.519 11.5084C111.987 13.8183 114.008 16.5551 115.601 18.8354L125.099 32.4264C125.127 33.8493 125.102 35.3565 125.099 36.7856L124.146 36.7988L103.072 36.7903C103.165 35.6375 103.098 33.1812 103.104 31.9388L118.062 31.9342C113.32 25.0008 108.113 17.9683 103.5 11.0053C103.476 9.57791 103.502 8.08458 103.508 6.65154Z" fill="black"/>
<path d="M86.081 6.67419C87.6303 6.60434 90.5295 6.61863 92.0495 6.70036C91.4363 8.50628 90.8111 10.3081 90.1739 12.1058L81.5723 36.7944C79.4654 36.8058 77.3583 36.8033 75.2513 36.787L67.8793 15.6708L65.8691 9.98351C65.5735 9.14874 64.9439 7.46674 64.7838 6.66688C66.7643 6.64318 68.7449 6.64536 70.7253 6.67342L78.4056 29.7953L86.081 6.67419Z" fill="black"/>
<path d="M94.7093 6.6643C96.5036 6.62915 98.3585 6.65646 100.158 6.66203C100.301 14.5379 100.077 22.4731 100.173 30.3543C100.198 32.476 100.219 34.6767 100.155 36.7945C98.3438 36.818 96.4789 36.7936 94.6628 36.7916C94.5775 34.6536 94.6371 32.114 94.6369 29.9365L94.643 17.0013L94.627 10.4565C94.6235 9.52115 94.5745 7.49645 94.7093 6.6643Z" fill="black"/>
<path d="M127.527 6.66679C129.242 6.60373 131.254 6.65262 132.98 6.66774C132.998 9.60624 133.141 36.467 132.881 36.7961L127.48 36.7876L127.479 16.1823L127.463 10.2379C127.459 9.27335 127.408 7.56497 127.527 6.66679Z" fill="black"/>
<path d="M0 4.27721L35.4677 4.27828C41.7538 4.27838 48.4215 4.38362 54.6734 4.24596C54.7711 10.9969 54.693 17.9239 54.6929 24.6855L54.6873 58.8148L0 58.8123V4.27721Z" fill="url(#paint0_radial_12_3)"/>
<path d="M17.3085 18.1282L38.1076 18.1311L38.1 22.9849L24.3498 22.9863C25.7368 25.1536 27.6404 27.7256 29.135 29.8655L38.9643 43.9515L38.9605 48.2474L37.8173 48.2558L16.9164 48.259C16.9123 46.7417 16.8642 44.8944 16.9414 43.4071L31.8982 43.4087C28.542 38.3582 24.7753 33.3398 21.3791 28.297C20.077 26.3638 18.5444 24.3582 17.3144 22.4004C17.2655 21.0747 17.3062 19.4738 17.3085 18.1282Z" fill="black"/>
<path d="M72.5665 55.2457V46.7095H75.4508C76.1205 46.7095 76.6679 46.8304 77.093 47.0721C77.5209 47.3111 77.8377 47.6348 78.0433 48.0433C78.249 48.4518 78.3518 48.9075 78.3518 49.4104C78.3518 49.9134 78.249 50.3705 78.0433 50.7817C77.8405 51.1929 77.5265 51.5208 77.1014 51.7654C76.6762 52.0071 76.1316 52.128 75.4675 52.128H73.4001V51.211H75.4341C75.8926 51.211 76.2608 51.1318 76.5387 50.9734C76.8165 50.815 77.018 50.6011 77.143 50.3316C77.2709 50.0592 77.3348 49.7522 77.3348 49.4104C77.3348 49.0686 77.2709 48.763 77.143 48.4934C77.018 48.2239 76.8151 48.0127 76.5345 47.8599C76.2538 47.7043 75.8815 47.6265 75.4175 47.6265H73.6002V55.2457H72.5665ZM80.0169 55.2457V46.7095H82.9012C83.5681 46.7095 84.1155 46.8234 84.5434 47.0513C84.9713 47.2764 85.2881 47.5862 85.4937 47.9808C85.6993 48.3753 85.8022 48.8241 85.8022 49.3271C85.8022 49.83 85.6993 50.276 85.4937 50.665C85.2881 51.054 84.9727 51.3597 84.5476 51.582C84.1224 51.8015 83.5792 51.9112 82.9179 51.9112H80.5838V50.9776H82.8845C83.3402 50.9776 83.707 50.9109 83.9849 50.7775C84.2655 50.6442 84.4684 50.4552 84.5934 50.2107C84.7212 49.9634 84.7851 49.6688 84.7851 49.3271C84.7851 48.9853 84.7212 48.6866 84.5934 48.4309C84.4656 48.1753 84.2614 47.978 83.9807 47.8391C83.7001 47.6973 83.3291 47.6265 82.8678 47.6265H81.0506V55.2457H80.0169ZM84.0349 51.4111L86.1356 55.2457H84.9352L82.8678 51.4111H84.0349ZM94.727 50.9776C94.727 51.8779 94.5644 52.6559 94.2393 53.3117C93.9142 53.9675 93.4682 54.4732 92.9014 54.8289C92.3345 55.1846 91.6871 55.3624 90.9591 55.3624C90.2311 55.3624 89.5836 55.1846 89.0168 54.8289C88.4499 54.4732 88.0039 53.9675 87.6788 53.3117C87.3537 52.6559 87.1912 51.8779 87.1912 50.9776C87.1912 50.0773 87.3537 49.2993 87.6788 48.6435C88.0039 47.9877 88.4499 47.482 89.0168 47.1263C89.5836 46.7706 90.2311 46.5928 90.9591 46.5928C91.6871 46.5928 92.3345 46.7706 92.9014 47.1263C93.4682 47.482 93.9142 47.9877 94.2393 48.6435C94.5644 49.2993 94.727 50.0773 94.727 50.9776ZM93.7267 50.9776C93.7267 50.2385 93.603 49.6146 93.3557 49.1061C93.1112 48.5976 92.7791 48.2128 92.3595 47.9516C91.9427 47.6904 91.4759 47.5598 90.9591 47.5598C90.4422 47.5598 89.974 47.6904 89.5544 47.9516C89.1376 48.2128 88.8056 48.5976 88.5583 49.1061C88.3137 49.6146 88.1915 50.2385 88.1915 50.9776C88.1915 51.7167 88.3137 52.3406 88.5583 52.8491C88.8056 53.3576 89.1376 53.7424 89.5544 54.0036C89.974 54.2648 90.4422 54.3954 90.9591 54.3954C91.4759 54.3954 91.9427 54.2648 92.3595 54.0036C92.7791 53.7424 93.1112 53.3576 93.3557 52.8491C93.603 52.3406 93.7267 51.7167 93.7267 50.9776ZM99.0993 55.2457H96.4651V46.7095H99.216C100.044 46.7095 100.753 46.8804 101.342 47.2222C101.931 47.5612 102.382 48.0488 102.696 48.6852C103.01 49.3187 103.167 50.0773 103.167 50.9609C103.167 51.8501 103.009 52.6156 102.692 53.2575C102.375 53.8966 101.914 54.3885 101.308 54.733C100.703 55.0748 99.9662 55.2457 99.0993 55.2457ZM97.4987 54.3287H99.0326C99.7384 54.3287 100.323 54.1926 100.787 53.9202C101.251 53.6479 101.597 53.2603 101.825 52.7574C102.053 52.2544 102.167 51.6556 102.167 50.9609C102.167 50.2718 102.054 49.6786 101.829 49.1812C101.604 48.681 101.268 48.2975 100.821 48.0308C100.373 47.7613 99.8162 47.6265 99.1493 47.6265H97.4987V54.3287ZM110.503 46.7095H111.537V52.3614C111.537 52.9449 111.399 53.4659 111.124 53.9244C110.852 54.3801 110.467 54.74 109.97 55.0039C109.472 55.2651 108.889 55.3957 108.219 55.3957C107.549 55.3957 106.966 55.2651 106.468 55.0039C105.971 54.74 105.585 54.3801 105.31 53.9244C105.037 53.4659 104.901 52.9449 104.901 52.3614V46.7095H105.935V52.278C105.935 52.6948 106.027 53.0658 106.21 53.3909C106.393 53.7132 106.655 53.9675 106.994 54.1537C107.335 54.337 107.744 54.4287 108.219 54.4287C108.694 54.4287 109.103 54.337 109.444 54.1537C109.786 53.9675 110.047 53.7132 110.228 53.3909C110.411 53.0658 110.503 52.6948 110.503 52.278V46.7095ZM120.47 49.3771H119.436C119.375 49.0797 119.268 48.8185 119.115 48.5935C118.965 48.3684 118.782 48.1794 118.565 48.0266C118.351 47.871 118.114 47.7543 117.852 47.6765C117.591 47.5987 117.319 47.5598 117.035 47.5598C116.519 47.5598 116.05 47.6904 115.631 47.9516C115.214 48.2128 114.882 48.5976 114.635 49.1061C114.39 49.6146 114.268 50.2385 114.268 50.9776C114.268 51.7167 114.39 52.3406 114.635 52.8491C114.882 53.3576 115.214 53.7424 115.631 54.0036C116.05 54.2648 116.519 54.3954 117.035 54.3954C117.319 54.3954 117.591 54.3565 117.852 54.2787C118.114 54.2009 118.351 54.0856 118.565 53.9327C118.782 53.7771 118.965 53.5868 119.115 53.3617C119.268 53.1339 119.375 52.8727 119.436 52.5781H120.47C120.392 53.0144 120.25 53.4048 120.045 53.7494C119.839 54.0939 119.583 54.3871 119.278 54.6288C118.972 54.8678 118.629 55.0498 118.248 55.1748C117.87 55.2999 117.466 55.3624 117.035 55.3624C116.307 55.3624 115.66 55.1846 115.093 54.8289C114.526 54.4732 114.08 53.9675 113.755 53.3117C113.43 52.6559 113.268 51.8779 113.268 50.9776C113.268 50.0773 113.43 49.2993 113.755 48.6435C114.08 47.9877 114.526 47.482 115.093 47.1263C115.66 46.7706 116.307 46.5928 117.035 46.5928C117.466 46.5928 117.87 46.6553 118.248 46.7804C118.629 46.9054 118.972 47.0888 119.278 47.3306C119.583 47.5695 119.839 47.8613 120.045 48.2058C120.25 48.5476 120.392 48.938 120.47 49.3771ZM121.673 47.6265V46.7095H128.076V47.6265H125.391V55.2457H124.358V47.6265H121.673ZM132.972 46.7095H134.206L137.107 53.7952H137.207L140.108 46.7095H141.341V55.2457H140.374V48.7602H140.291L137.624 55.2457H136.69L134.022 48.7602H133.939V55.2457H132.972V46.7095ZM143.764 55.2457H142.68L145.815 46.7095H146.882L150.016 55.2457H148.932L146.382 48.06H146.315L143.764 55.2457ZM144.164 51.9112H148.532V52.8282H144.164V51.9112ZM151.346 55.2457V46.7095H154.23C154.897 46.7095 155.444 46.8234 155.872 47.0513C156.3 47.2764 156.617 47.5862 156.823 47.9808C157.028 48.3753 157.131 48.8241 157.131 49.3271C157.131 49.83 157.028 50.276 156.823 50.665C156.617 51.054 156.302 51.3597 155.876 51.582C155.451 51.8015 154.908 51.9112 154.247 51.9112H151.913V50.9776H154.213C154.669 50.9776 155.036 50.9109 155.314 50.7775C155.594 50.6442 155.797 50.4552 155.922 50.2107C156.05 49.9634 156.114 49.6688 156.114 49.3271C156.114 48.9853 156.05 48.6866 155.922 48.4309C155.794 48.1753 155.59 47.978 155.31 47.8391C155.029 47.6973 154.658 47.6265 154.197 47.6265H152.379V55.2457H151.346ZM155.364 51.4111L157.464 55.2457H156.264L154.197 51.4111H155.364ZM158.853 55.2457V46.7095H159.887V50.9443H159.987L163.822 46.7095H165.172L161.588 50.5608L165.172 55.2457H163.922L160.954 51.2777L159.887 52.4781V55.2457H158.853ZM166.51 55.2457V46.7095H171.662V47.6265H167.544V50.5108H171.395V51.4277H167.544V54.3287H171.729V55.2457H166.51ZM173.058 47.6265V46.7095H179.46V47.6265H176.776V55.2457H175.742V47.6265H173.058ZM182.089 46.7095V55.2457H181.056V46.7095H182.089ZM190.931 46.7095V55.2457H189.93L185.279 48.5435H185.196V55.2457H184.162V46.7095H185.162L189.83 53.4284H189.914V46.7095H190.931ZM198.834 49.3771C198.743 49.0964 198.622 48.8449 198.472 48.6227C198.325 48.3976 198.148 48.2058 197.942 48.0475C197.74 47.8891 197.509 47.7682 197.251 47.6848C196.992 47.6015 196.709 47.5598 196.4 47.5598C195.895 47.5598 195.435 47.6904 195.021 47.9516C194.607 48.2128 194.277 48.5976 194.033 49.1061C193.788 49.6146 193.666 50.2385 193.666 50.9776C193.666 51.7167 193.79 52.3406 194.037 52.8491C194.284 53.3576 194.619 53.7424 195.042 54.0036C195.464 54.2648 195.939 54.3954 196.467 54.3954C196.956 54.3954 197.387 54.2912 197.759 54.0828C198.134 53.8716 198.426 53.5743 198.634 53.1908C198.846 52.8046 198.951 52.3503 198.951 51.8279L199.268 51.8946H196.7V50.9776H199.951V51.8946C199.951 52.5976 199.801 53.2089 199.501 53.7285C199.204 54.2481 198.793 54.651 198.268 54.9372C197.745 55.2207 197.145 55.3624 196.467 55.3624C195.711 55.3624 195.047 55.1846 194.475 54.8289C193.905 54.4732 193.46 53.9675 193.141 53.3117C192.824 52.6559 192.666 51.8779 192.666 50.9776C192.666 50.3024 192.756 49.6952 192.937 49.1562C193.12 48.6143 193.378 48.1531 193.712 47.7724C194.045 47.3917 194.44 47.0999 194.896 46.8971C195.351 46.6942 195.853 46.5928 196.4 46.5928C196.85 46.5928 197.27 46.6609 197.659 46.797C198.051 46.9304 198.4 47.1208 198.705 47.3681C199.014 47.6126 199.271 47.9057 199.476 48.2475C199.682 48.5865 199.824 48.963 199.901 49.3771H198.834Z" fill="black"/>
</g>
<defs>
<radialGradient id="paint0_radial_12_3" cx="0" cy="0" r="1" gradientUnits="userSpaceOnUse" gradientTransform="translate(27.3613 31.5304) rotate(90) scale(27.2844 27.2844)">
<stop stop-color="#EDFE00"/>
<stop offset="1" stop-color="#D4FE00"/>
</radialGradient>
<clipPath id="clip0_12_3">
<rect width="200" height="63" fill="white"/>
</clipPath>
</defs>
</svg>
